<svg width="46" height="45" viewBox="0 0 46 45" fill="none" xmlns="http://www.w3.org/2000/svg">
<path d="M45 22.5C45 34.3535 35.1711 44 23 44C10.8289 44 1 34.3535 1 22.5C1 10.6465 10.8289 1 23 1C35.1711 1 45 10.6465 45 22.5Z" fill="white" stroke="black" stroke-width="2"/>
<path d="M32.2 32.625V30.375C32.2 29.1815 31.7154 28.0369 30.8527 27.193C29.99 26.3491 28.82 25.875 27.6 25.875H18.4C17.18 25.875 16.01 26.3491 15.1473 27.193C14.2847 28.0369 13.8 29.1815 13.8 30.375V32.625" stroke="black" stroke-width="2" stroke-linecap="round" stroke-linejoin="round"/>
<path d="M23 21.375C25.5405 21.375 27.6 19.3603 27.6 16.875C27.6 14.3897 25.5405 12.375 23 12.375C20.4595 12.375 18.4 14.3897 18.4 16.875C18.4 19.3603 20.4595 21.375 23 21.375Z" stroke="black" stroke-width="2" stroke-linecap="round" stroke-linejoin="round"/>
</svg>
