<svg width="40" height="40" viewBox="0 0 40 40" fill="none" xmlns="http://www.w3.org/2000/svg">
<path d="M16.1544 25.112C15.781 25.112 15.4717 24.9947 15.2264 24.76C14.9917 24.5253 14.8744 24.2427 14.8744 23.912C14.8744 23.5707 14.9917 23.2827 15.2264 23.048C15.4717 22.8133 15.781 22.696 16.1544 22.696C16.5277 22.696 16.8317 22.8133 17.0664 23.048C17.3117 23.2827 17.4344 23.5707 17.4344 23.912C17.4344 24.2427 17.3117 24.5253 17.0664 24.76C16.8317 24.9947 16.5277 25.112 16.1544 25.112ZM19.9981 25.112C19.6248 25.112 19.3155 24.9947 19.0701 24.76C18.8355 24.5253 18.7181 24.2427 18.7181 23.912C18.7181 23.5707 18.8355 23.2827 19.0701 23.048C19.3155 22.8133 19.6248 22.696 19.9981 22.696C20.3715 22.696 20.6755 22.8133 20.9101 23.048C21.1555 23.2827 21.2781 23.5707 21.2781 23.912C21.2781 24.2427 21.1555 24.5253 20.9101 24.76C20.6755 24.9947 20.3715 25.112 19.9981 25.112ZM23.8419 25.112C23.4685 25.112 23.1592 24.9947 22.9139 24.76C22.6792 24.5253 22.5619 24.2427 22.5619 23.912C22.5619 23.5707 22.6792 23.2827 22.9139 23.048C23.1592 22.8133 23.4685 22.696 23.8419 22.696C24.2152 22.696 24.5192 22.8133 24.7539 23.048C24.9992 23.2827 25.1219 23.5707 25.1219 23.912C25.1219 24.2427 24.9992 24.5253 24.7539 24.76C24.5192 24.9947 24.2152 25.112 23.8419 25.112Z" fill="black"/>
</svg>
